<svg width="20" height="16" viewBox="0 0 20 16" fill="none" xmlns="http://www.w3.org/2000/svg">
<path id="bag-icon" fill-rule="evenodd" clip-rule="evenodd" d="M3.5744 0.691C2.7414 1.383 2.5214 2.553 2.0824 4.894L1.3324 8.894C0.715396 12.186 0.407396 13.832 1.3064 14.916C2.2064 16 3.8804 16 7.2304 16H12.7704C16.1204 16 17.7944 16 18.6944 14.916C19.5944 13.832 19.2844 12.186 18.6684 8.894L17.9184 4.894C17.4784 2.554 17.2594 1.383 16.4264 0.691C15.5934 0 14.4024 0 12.0204 0H7.9804C5.5984 0 4.4074 0 3.5744 0.691ZM7.8784 3.751C8.03346 4.19004 8.32086 4.57018 8.70099 4.83907C9.08112 5.10795 9.53528 5.25234 10.0009 5.25234C10.4665 5.25234 10.9207 5.10795 11.3008 4.83907C11.6809 4.57018 11.9683 4.19004 12.1234 3.751C12.1933 3.5685 12.3318 3.4205 12.5092 3.33853C12.6866 3.25656 12.889 3.24708 13.0733 3.31213C13.2576 3.37717 13.4093 3.51159 13.4959 3.68676C13.5826 3.86193 13.5975 4.06402 13.5374 4.25C13.2788 4.98134 12.7999 5.61454 12.1666 6.06239C11.5332 6.51025 10.7766 6.75073 10.0009 6.75073C9.2252 6.75073 8.46858 6.51025 7.83523 6.06239C7.20188 5.61454 6.72295 4.98134 6.4644 4.25C6.42968 4.15672 6.41388 4.05747 6.41792 3.95803C6.42195 3.85859 6.44573 3.76094 6.48788 3.67078C6.53003 3.58062 6.58971 3.49975 6.66342 3.43289C6.73714 3.36602 6.82343 3.3145 6.91727 3.28132C7.0111 3.24814 7.1106 3.23397 7.20996 3.23963C7.30932 3.24529 7.40657 3.27067 7.49602 3.31429C7.58548 3.35792 7.66536 3.41891 7.73101 3.49371C7.79666 3.56851 7.84676 3.65664 7.8784 3.751Z" fill="#FAFAFA"/>
</svg>
