<svg width="17" height="19" viewBox="0 0 17 19" fill="none" xmlns="http://www.w3.org/2000/svg">
<path id="filter-icon" d="M5.50684 2.00245C5.24162 2.00245 4.98727 2.10781 4.79973 2.29534C4.61219 2.48288 4.50684 2.73723 4.50684 3.00245C4.50684 3.26767 4.61219 3.52202 4.79973 3.70956C4.98727 3.89709 5.24162 4.00245 5.50684 4.00245C5.77205 4.00245 6.02641 3.89709 6.21394 3.70956C6.40148 3.52202 6.50684 3.26767 6.50684 3.00245C6.50684 2.73723 6.40148 2.48288 6.21394 2.29534C6.02641 2.10781 5.77205 2.00245 5.50684 2.00245ZM2.67684 2.00245C2.88344 1.41692 3.26658 0.909884 3.77344 0.55124C4.2803 0.192596 4.88592 0 5.50684 0C6.12775 0 6.73338 0.192596 7.24024 0.55124C7.7471 0.909884 8.13023 1.41692 8.33684 2.00245H15.5068C15.7721 2.00245 16.0264 2.10781 16.2139 2.29534C16.4015 2.48288 16.5068 2.73723 16.5068 3.00245C16.5068 3.26767 16.4015 3.52202 16.2139 3.70956C16.0264 3.89709 15.7721 4.00245 15.5068 4.00245H8.33684C8.13023 4.58798 7.7471 5.09502 7.24024 5.45366C6.73338 5.81231 6.12775 6.0049 5.50684 6.0049C4.88592 6.0049 4.2803 5.81231 3.77344 5.45366C3.26658 5.09502 2.88344 4.58798 2.67684 4.00245H1.50684C1.24162 4.00245 0.987266 3.89709 0.799729 3.70956C0.612193 3.52202 0.506836 3.26767 0.506836 3.00245C0.506836 2.73723 0.612193 2.48288 0.799729 2.29534C0.987266 2.10781 1.24162 2.00245 1.50684 2.00245H2.67684ZM11.5068 8.00245C11.2416 8.00245 10.9873 8.10781 10.7997 8.29534C10.6122 8.48288 10.5068 8.73723 10.5068 9.00245C10.5068 9.26767 10.6122 9.52202 10.7997 9.70956C10.9873 9.89709 11.2416 10.0025 11.5068 10.0025C11.7721 10.0025 12.0264 9.89709 12.2139 9.70956C12.4015 9.52202 12.5068 9.26767 12.5068 9.00245C12.5068 8.73723 12.4015 8.48288 12.2139 8.29534C12.0264 8.10781 11.7721 8.00245 11.5068 8.00245ZM8.67684 8.00245C8.88344 7.41692 9.26657 6.90988 9.77344 6.55124C10.2803 6.1926 10.8859 6 11.5068 6C12.1277 6 12.7334 6.1926 13.2402 6.55124C13.7471 6.90988 14.1302 7.41692 14.3368 8.00245H15.5068C15.7721 8.00245 16.0264 8.10781 16.2139 8.29534C16.4015 8.48288 16.5068 8.73723 16.5068 9.00245C16.5068 9.26767 16.4015 9.52202 16.2139 9.70956C16.0264 9.89709 15.7721 10.0025 15.5068 10.0025H14.3368C14.1302 10.588 13.7471 11.095 13.2402 11.4537C12.7334 11.8123 12.1277 12.0049 11.5068 12.0049C10.8859 12.0049 10.2803 11.8123 9.77344 11.4537C9.26657 11.095 8.88344 10.588 8.67684 10.0025H1.50684C1.24162 10.0025 0.987266 9.89709 0.799729 9.70956C0.612193 9.52202 0.506836 9.26767 0.506836 9.00245C0.506836 8.73723 0.612193 8.48288 0.799729 8.29534C0.987266 8.10781 1.24162 8.00245 1.50684 8.00245H8.67684ZM5.50684 14.0025C5.24162 14.0025 4.98727 14.1078 4.79973 14.2953C4.61219 14.4829 4.50684 14.7372 4.50684 15.0025C4.50684 15.2677 4.61219 15.522 4.79973 15.7096C4.98727 15.8971 5.24162 16.0025 5.50684 16.0025C5.77205 16.0025 6.02641 15.8971 6.21394 15.7096C6.40148 15.522 6.50684 15.2677 6.50684 15.0025C6.50684 14.7372 6.40148 14.4829 6.21394 14.2953C6.02641 14.1078 5.77205 14.0025 5.50684 14.0025ZM2.67684 14.0025C2.88344 13.4169 3.26658 12.9099 3.77344 12.5512C4.2803 12.1926 4.88592 12 5.50684 12C6.12775 12 6.73338 12.1926 7.24024 12.5512C7.7471 12.9099 8.13023 13.4169 8.33684 14.0025H15.5068C15.7721 14.0025 16.0264 14.1078 16.2139 14.2953C16.4015 14.4829 16.5068 14.7372 16.5068 15.0025C16.5068 15.2677 16.4015 15.522 16.2139 15.7096C16.0264 15.8971 15.7721 16.0025 15.5068 16.0025H8.33684C8.13023 16.588 7.7471 17.095 7.24024 17.4537C6.73338 17.8123 6.12775 18.0049 5.50684 18.0049C4.88592 18.0049 4.2803 17.8123 3.77344 17.4537C3.26658 17.095 2.88344 16.588 2.67684 16.0025H1.50684C1.24162 16.0025 0.987266 15.8971 0.799729 15.7096C0.612193 15.522 0.506836 15.2677 0.506836 15.0025C0.506836 14.7372 0.612193 14.4829 0.799729 14.2953C0.987266 14.1078 1.24162 14.0025 1.50684 14.0025H2.67684Z" fill="black"/>
</svg>
