<svg width="22" height="21" viewBox="0 0 22 21" fill="none" xmlns="http://www.w3.org/2000/svg">
<g id="log-in-icons">
<path id="sign-in" d="M11 14H6.5C5.10444 14 4.40665 14 3.83886 14.1722C2.56045 14.56 1.56004 15.5605 1.17224 16.8389C1 17.4067 1 18.1044 1 19.5M15 16.5L18 19.5M18 19.5L21 16.5M18 19.5V13.5M13.5 6C13.5 8.48528 11.4853 10.5 9 10.5C6.51472 10.5 4.5 8.48528 4.5 6C4.5 3.51472 6.51472 1.5 9 1.5C11.4853 1.5 13.5 3.51472 13.5 6Z" stroke="#F37937" stroke-width="2" stroke-linecap="round" stroke-linejoin="round"/>
</g>
</svg>
