<svg width="72" height="25" viewBox="0 0 72 25" fill="none" xmlns="http://www.w3.org/2000/svg">
<path id="Vector" d="M72 0L19.3256 22.2474C14.9576 24.0805 11.2885 25 8.32151 25C4.96148 25 2.52246 23.8335 1.01045 21.4974C0.059442 19.9976 -0.21956 18.0961 0.170443 15.7898C0.560446 13.4835 1.59845 11.0284 3.27847 8.41567C4.67948 6.30282 6.9745 3.52637 10.1695 0.0833231C9.08581 1.77558 8.29112 3.63367 7.8175 5.58267C6.9775 9.13879 7.7335 11.7486 10.0855 13.4151C11.2045 14.1918 12.7435 14.5816 14.7056 14.5816C16.2716 14.5816 18.0356 14.3316 19.9976 13.8317L72 0Z" fill="#F37937"/>
</svg>
