<svg width="17" height="17" viewBox="0 0 17 17" fill="none" xmlns="http://www.w3.org/2000/svg">
<path id="Vector" d="M16.3447 6.87024H10.1104V0.635864C10.1104 0.455396 9.9627 0.307739 9.78223 0.307739H7.81348C7.63301 0.307739 7.48535 0.455396 7.48535 0.635864V6.87024H1.25098C1.07051 6.87024 0.922852 7.0179 0.922852 7.19836V9.16711C0.922852 9.34758 1.07051 9.49524 1.25098 9.49524H7.48535V15.7296C7.48535 15.9101 7.63301 16.0577 7.81348 16.0577H9.78223C9.9627 16.0577 10.1104 15.9101 10.1104 15.7296V9.49524H16.3447C16.5252 9.49524 16.6729 9.34758 16.6729 9.16711V7.19836C16.6729 7.0179 16.5252 6.87024 16.3447 6.87024Z" fill="white"/>
</svg>
