<svg width="20" height="12" viewBox="0 0 20 12" fill="none" xmlns="http://www.w3.org/2000/svg">
<path id="sort-icon" d="M0.555552 1.04536L0.555275 1.04563C0.460788 1.13821 0.385723 1.24871 0.334477 1.37066C0.283231 1.49262 0.256836 1.62357 0.256836 1.75585C0.256836 1.88814 0.283232 2.01909 0.334477 2.14104C0.385722 2.263 0.460788 2.3735 0.555275 2.46608L0.555715 2.46651L9.25356 10.9468L9.25359 10.9468C9.45302 11.1412 9.7205 11.25 9.999 11.25C10.2775 11.25 10.545 11.1412 10.7444 10.9468L10.7444 10.9468L19.4422 2.46826C19.4422 2.46823 19.4422 2.46819 19.4423 2.46816C19.5374 2.37553 19.613 2.26479 19.6646 2.14248C19.7162 2.02012 19.7428 1.88866 19.7428 1.75585C19.7428 1.62305 19.7162 1.49158 19.6646 1.36922C19.6129 1.24686 19.5373 1.13609 19.4422 1.04344C19.2494 0.855314 18.9907 0.75 18.7214 0.75C18.4519 0.75 18.1931 0.855418 18.0003 1.04372L17.925 1.11728V1.11877L9.999 8.84497L1.99768 1.04536C1.99763 1.04531 1.99755 1.04523 1.9975 1.04518C1.80473 0.85697 1.54603 0.751636 1.27661 0.751636C1.00713 0.751636 0.748334 0.857055 0.555553 1.04536L0.555552 1.04536Z" fill="black" stroke="black" stroke-width="0.5"/>
</svg>
